<mxfile host="app.diagrams.net" modified="2022-12-16T12:29:19.436Z" agent="5.0 (Windows NT 10.0; Win64; x64) AppleWebKit/537.36 (KHTML, like Gecko) Chrome/108.0.0.0 Safari/537.36" version="20.7.2" etag="CYDmCrm2K_bwTJ9Xrd9q" type="github">
  <diagram id="JNPCs_gOcxYZxowklzls" name="Page-1">
    <mxGraphModel dx="1404" dy="873" grid="1" gridSize="10" guides="1" tooltips="1" connect="1" arrows="1" fold="1" page="1" pageScale="1" pageWidth="10000" pageHeight="10000" math="0" shadow="0">
      <root>
        <mxCell id="0" />
        <mxCell id="1" parent="0" />
        <mxCell id="XE-wUI4xG0B0tWC4ZzCH-2" value="WangYueQiFu" style="edgeStyle=orthogonalEdgeStyle;rounded=0;orthogonalLoop=1;jettySize=auto;html=1;" edge="1" parent="1" source="XE-wUI4xG0B0tWC4ZzCH-1" target="XE-wUI4xG0B0tWC4ZzCH-3">
          <mxGeometry relative="1" as="geometry">
            <mxPoint x="230" y="320" as="targetPoint" />
            <Array as="points">
              <mxPoint x="290" y="330" />
              <mxPoint x="290" y="330" />
            </Array>
          </mxGeometry>
        </mxCell>
        <mxCell id="XE-wUI4xG0B0tWC4ZzCH-1" value="empployee" style="shape=umlActor;verticalLabelPosition=bottom;verticalAlign=top;html=1;outlineConnect=0;" vertex="1" parent="1">
          <mxGeometry x="100" y="300" width="30" height="60" as="geometry" />
        </mxCell>
        <mxCell id="XE-wUI4xG0B0tWC4ZzCH-3" value="taxinvoicelist" style="shape=umlLifeline;perimeter=lifelinePerimeter;whiteSpace=wrap;html=1;container=1;collapsible=0;recursiveResize=0;outlineConnect=0;" vertex="1" parent="1">
          <mxGeometry x="300" y="220" width="100" height="560" as="geometry" />
        </mxCell>
        <mxCell id="XE-wUI4xG0B0tWC4ZzCH-4" value="" style="html=1;points=[];perimeter=orthogonalPerimeter;" vertex="1" parent="XE-wUI4xG0B0tWC4ZzCH-3">
          <mxGeometry x="45" y="110" width="10" height="440" as="geometry" />
        </mxCell>
        <mxCell id="XE-wUI4xG0B0tWC4ZzCH-5" value="" style="html=1;points=[];perimeter=orthogonalPerimeter;" vertex="1" parent="XE-wUI4xG0B0tWC4ZzCH-3">
          <mxGeometry x="55" y="140" width="10" height="40" as="geometry" />
        </mxCell>
        <mxCell id="XE-wUI4xG0B0tWC4ZzCH-6" value="校验是否已生成发票" style="edgeStyle=orthogonalEdgeStyle;html=1;align=left;spacingLeft=2;endArrow=block;rounded=0;entryX=1;entryY=0;" edge="1" target="XE-wUI4xG0B0tWC4ZzCH-5" parent="XE-wUI4xG0B0tWC4ZzCH-3">
          <mxGeometry relative="1" as="geometry">
            <mxPoint x="50" y="120" as="sourcePoint" />
            <Array as="points">
              <mxPoint x="80" y="120" />
            </Array>
          </mxGeometry>
        </mxCell>
        <mxCell id="XE-wUI4xG0B0tWC4ZzCH-7" value="" style="html=1;points=[];perimeter=orthogonalPerimeter;" vertex="1" parent="XE-wUI4xG0B0tWC4ZzCH-3">
          <mxGeometry x="50" y="250" width="10" height="40" as="geometry" />
        </mxCell>
        <mxCell id="XE-wUI4xG0B0tWC4ZzCH-8" value="检查支付状态（0，3，4，5）" style="edgeStyle=orthogonalEdgeStyle;html=1;align=left;spacingLeft=2;endArrow=block;rounded=0;entryX=1;entryY=0;" edge="1" target="XE-wUI4xG0B0tWC4ZzCH-7" parent="XE-wUI4xG0B0tWC4ZzCH-3">
          <mxGeometry relative="1" as="geometry">
            <mxPoint x="55" y="230" as="sourcePoint" />
            <Array as="points">
              <mxPoint x="85" y="230" />
            </Array>
          </mxGeometry>
        </mxCell>
        <mxCell id="XE-wUI4xG0B0tWC4ZzCH-9" value="" style="html=1;points=[];perimeter=orthogonalPerimeter;" vertex="1" parent="XE-wUI4xG0B0tWC4ZzCH-3">
          <mxGeometry x="50" y="350" width="10" height="40" as="geometry" />
        </mxCell>
        <mxCell id="XE-wUI4xG0B0tWC4ZzCH-10" value="&amp;nbsp;校验是否已在荣E通绑定预约支付账号" style="edgeStyle=orthogonalEdgeStyle;html=1;align=left;spacingLeft=2;endArrow=block;rounded=0;entryX=1;entryY=0;" edge="1" target="XE-wUI4xG0B0tWC4ZzCH-9" parent="XE-wUI4xG0B0tWC4ZzCH-3">
          <mxGeometry relative="1" as="geometry">
            <mxPoint x="55" y="330" as="sourcePoint" />
            <Array as="points">
              <mxPoint x="85" y="330" />
            </Array>
          </mxGeometry>
        </mxCell>
        <mxCell id="XE-wUI4xG0B0tWC4ZzCH-20" value="" style="html=1;points=[];perimeter=orthogonalPerimeter;" vertex="1" parent="XE-wUI4xG0B0tWC4ZzCH-3">
          <mxGeometry x="50" y="420" width="10" height="80" as="geometry" />
        </mxCell>
        <mxCell id="XE-wUI4xG0B0tWC4ZzCH-11" value="Biz_TEZPayAutoSetup" style="shape=umlLifeline;participant=umlEntity;perimeter=lifelinePerimeter;whiteSpace=wrap;html=1;container=1;collapsible=0;recursiveResize=0;verticalAlign=top;spacingTop=36;outlineConnect=0;size=40;" vertex="1" parent="1">
          <mxGeometry x="780" y="220" width="40" height="560" as="geometry" />
        </mxCell>
        <mxCell id="XE-wUI4xG0B0tWC4ZzCH-15" value="" style="html=1;points=[];perimeter=orthogonalPerimeter;" vertex="1" parent="XE-wUI4xG0B0tWC4ZzCH-11">
          <mxGeometry x="15" y="340" width="10" height="80" as="geometry" />
        </mxCell>
        <mxCell id="XE-wUI4xG0B0tWC4ZzCH-12" value="谁维护的？" style="shape=note;strokeWidth=2;fontSize=14;size=20;whiteSpace=wrap;html=1;fillColor=#fff2cc;strokeColor=#d6b656;fontColor=#666600;" vertex="1" parent="1">
          <mxGeometry x="790" y="110" width="110.00000000000001" height="80" as="geometry" />
        </mxCell>
        <mxCell id="XE-wUI4xG0B0tWC4ZzCH-13" value="" style="endArrow=none;html=1;rounded=0;" edge="1" parent="1" source="XE-wUI4xG0B0tWC4ZzCH-11" target="XE-wUI4xG0B0tWC4ZzCH-12">
          <mxGeometry width="50" height="50" relative="1" as="geometry">
            <mxPoint x="690" y="470" as="sourcePoint" />
            <mxPoint x="740" y="420" as="targetPoint" />
          </mxGeometry>
        </mxCell>
        <mxCell id="XE-wUI4xG0B0tWC4ZzCH-16" style="edgeStyle=orthogonalEdgeStyle;rounded=0;orthogonalLoop=1;jettySize=auto;html=1;" edge="1" parent="1" source="XE-wUI4xG0B0tWC4ZzCH-9" target="XE-wUI4xG0B0tWC4ZzCH-11">
          <mxGeometry relative="1" as="geometry">
            <Array as="points">
              <mxPoint x="650" y="590" />
              <mxPoint x="650" y="590" />
            </Array>
          </mxGeometry>
        </mxCell>
        <mxCell id="XE-wUI4xG0B0tWC4ZzCH-17" value="根据payer partner code 查询" style="edgeLabel;html=1;align=center;verticalAlign=middle;resizable=0;points=[];" vertex="1" connectable="0" parent="XE-wUI4xG0B0tWC4ZzCH-16">
          <mxGeometry x="-0.2837" y="2" relative="1" as="geometry">
            <mxPoint x="1" as="offset" />
          </mxGeometry>
        </mxCell>
        <mxCell id="XE-wUI4xG0B0tWC4ZzCH-18" value="ezpay" style="shape=umlLifeline;participant=umlBoundary;perimeter=lifelinePerimeter;whiteSpace=wrap;html=1;container=1;collapsible=0;recursiveResize=0;verticalAlign=top;spacingTop=36;outlineConnect=0;" vertex="1" parent="1">
          <mxGeometry x="1020" y="240" width="50" height="590" as="geometry" />
        </mxCell>
        <mxCell id="XE-wUI4xG0B0tWC4ZzCH-26" value="" style="html=1;points=[];perimeter=orthogonalPerimeter;" vertex="1" parent="XE-wUI4xG0B0tWC4ZzCH-18">
          <mxGeometry x="20" y="420" width="10" height="130" as="geometry" />
        </mxCell>
        <mxCell id="XE-wUI4xG0B0tWC4ZzCH-19" value="tfapiaobiz" style="shape=umlLifeline;perimeter=lifelinePerimeter;whiteSpace=wrap;html=1;container=1;collapsible=0;recursiveResize=0;outlineConnect=0;" vertex="1" parent="1">
          <mxGeometry x="560" y="220" width="100" height="770" as="geometry" />
        </mxCell>
        <mxCell id="XE-wUI4xG0B0tWC4ZzCH-21" style="edgeStyle=orthogonalEdgeStyle;rounded=0;orthogonalLoop=1;jettySize=auto;html=1;startArrow=none;" edge="1" parent="1" source="XE-wUI4xG0B0tWC4ZzCH-22" target="XE-wUI4xG0B0tWC4ZzCH-19">
          <mxGeometry relative="1" as="geometry">
            <Array as="points">
              <mxPoint x="510" y="680" />
              <mxPoint x="510" y="680" />
            </Array>
          </mxGeometry>
        </mxCell>
        <mxCell id="XE-wUI4xG0B0tWC4ZzCH-27" style="edgeStyle=orthogonalEdgeStyle;rounded=0;orthogonalLoop=1;jettySize=auto;html=1;" edge="1" parent="1" source="XE-wUI4xG0B0tWC4ZzCH-22" target="XE-wUI4xG0B0tWC4ZzCH-18">
          <mxGeometry relative="1" as="geometry">
            <Array as="points">
              <mxPoint x="920" y="700" />
              <mxPoint x="920" y="700" />
            </Array>
          </mxGeometry>
        </mxCell>
        <mxCell id="XE-wUI4xG0B0tWC4ZzCH-28" value="https://api.cargonpay.com/api/reservePay/customerBindQuery&lt;br&gt;查询绑定" style="edgeLabel;html=1;align=center;verticalAlign=middle;resizable=0;points=[];" vertex="1" connectable="0" parent="XE-wUI4xG0B0tWC4ZzCH-27">
          <mxGeometry x="0.0967" relative="1" as="geometry">
            <mxPoint as="offset" />
          </mxGeometry>
        </mxCell>
        <mxCell id="XE-wUI4xG0B0tWC4ZzCH-29" style="edgeStyle=orthogonalEdgeStyle;rounded=0;orthogonalLoop=1;jettySize=auto;html=1;" edge="1" parent="1" source="XE-wUI4xG0B0tWC4ZzCH-22" target="XE-wUI4xG0B0tWC4ZzCH-18">
          <mxGeometry relative="1" as="geometry">
            <Array as="points">
              <mxPoint x="910" y="735" />
              <mxPoint x="910" y="735" />
            </Array>
          </mxGeometry>
        </mxCell>
        <mxCell id="XE-wUI4xG0B0tWC4ZzCH-30" value="/api/reservePay/authSignUrl&lt;br&gt;上传发票" style="edgeLabel;html=1;align=center;verticalAlign=middle;resizable=0;points=[];" vertex="1" connectable="0" parent="XE-wUI4xG0B0tWC4ZzCH-29">
          <mxGeometry x="-0.0803" y="7" relative="1" as="geometry">
            <mxPoint x="-8" y="22" as="offset" />
          </mxGeometry>
        </mxCell>
        <mxCell id="XE-wUI4xG0B0tWC4ZzCH-31" style="edgeStyle=orthogonalEdgeStyle;rounded=0;orthogonalLoop=1;jettySize=auto;html=1;" edge="1" parent="1" source="XE-wUI4xG0B0tWC4ZzCH-22" target="XE-wUI4xG0B0tWC4ZzCH-18">
          <mxGeometry relative="1" as="geometry">
            <Array as="points">
              <mxPoint x="720" y="790" />
              <mxPoint x="720" y="790" />
            </Array>
          </mxGeometry>
        </mxCell>
        <mxCell id="XE-wUI4xG0B0tWC4ZzCH-32" value="/api/reservePay/batchCreateOrder&quot;&lt;br&gt;创建支付订单" style="edgeLabel;html=1;align=center;verticalAlign=middle;resizable=0;points=[];" vertex="1" connectable="0" parent="XE-wUI4xG0B0tWC4ZzCH-31">
          <mxGeometry x="-0.0943" relative="1" as="geometry">
            <mxPoint x="1" as="offset" />
          </mxGeometry>
        </mxCell>
        <mxCell id="XE-wUI4xG0B0tWC4ZzCH-22" value="" style="html=1;points=[];perimeter=orthogonalPerimeter;" vertex="1" parent="1">
          <mxGeometry x="605" y="660" width="10" height="230" as="geometry" />
        </mxCell>
        <mxCell id="XE-wUI4xG0B0tWC4ZzCH-23" value="CreateWangYueQiFu" style="edgeStyle=orthogonalEdgeStyle;rounded=0;orthogonalLoop=1;jettySize=auto;html=1;endArrow=none;" edge="1" parent="1">
          <mxGeometry x="0.1396" relative="1" as="geometry">
            <mxPoint x="359" y="680" as="sourcePoint" />
            <mxPoint x="604" y="700" as="targetPoint" />
            <Array as="points" />
            <mxPoint as="offset" />
          </mxGeometry>
        </mxCell>
        <mxCell id="XE-wUI4xG0B0tWC4ZzCH-33" value="" style="html=1;points=[];perimeter=orthogonalPerimeter;" vertex="1" parent="1">
          <mxGeometry x="610" y="840" width="10" height="40" as="geometry" />
        </mxCell>
        <mxCell id="XE-wUI4xG0B0tWC4ZzCH-34" value="删除旧的支付信息，插入新的网约起付支付信息&lt;br&gt;paymentstatus=10" style="edgeStyle=orthogonalEdgeStyle;html=1;align=left;spacingLeft=2;endArrow=block;rounded=0;entryX=1;entryY=0;" edge="1" target="XE-wUI4xG0B0tWC4ZzCH-33" parent="1">
          <mxGeometry relative="1" as="geometry">
            <mxPoint x="615" y="820" as="sourcePoint" />
            <Array as="points">
              <mxPoint x="645" y="820" />
            </Array>
          </mxGeometry>
        </mxCell>
        <mxCell id="XE-wUI4xG0B0tWC4ZzCH-35" value="WYQFPaymentStatus" style="shape=umlLifeline;perimeter=lifelinePerimeter;whiteSpace=wrap;html=1;container=1;collapsible=0;recursiveResize=0;outlineConnect=0;" vertex="1" parent="1">
          <mxGeometry x="380" y="1150" width="220" height="300" as="geometry" />
        </mxCell>
        <mxCell id="XE-wUI4xG0B0tWC4ZzCH-37" style="edgeStyle=orthogonalEdgeStyle;rounded=0;orthogonalLoop=1;jettySize=auto;html=1;" edge="1" parent="1" source="XE-wUI4xG0B0tWC4ZzCH-36" target="XE-wUI4xG0B0tWC4ZzCH-35">
          <mxGeometry relative="1" as="geometry" />
        </mxCell>
        <mxCell id="XE-wUI4xG0B0tWC4ZzCH-36" value="ezpay" style="shape=umlLifeline;participant=umlBoundary;perimeter=lifelinePerimeter;whiteSpace=wrap;html=1;container=1;collapsible=0;recursiveResize=0;verticalAlign=top;spacingTop=36;outlineConnect=0;" vertex="1" parent="1">
          <mxGeometry x="230" y="1150" width="50" height="300" as="geometry" />
        </mxCell>
      </root>
    </mxGraphModel>
  </diagram>
</mxfile>
